<svg xmlns="http://www.w3.org/2000/svg" xmlns:xlink="http://www.w3.org/1999/xlink" preserveAspectRatio="xMidYMid" width="30.93" height="30.63" viewBox="0 0 30.93 30.63">
  <defs>
    <style>
      .cls-1 {
        fill: #fff;
        opacity: 0.7;
        fill-rule: evenodd;
      }
    </style>
  </defs>
  <path d="M15.503,0.004 L15.486,0.004 C6.953,0.004 0.002,6.915 0.002,15.366 L0.002,15.374 C0.002,23.821 6.969,30.639 15.499,30.639 L15.514,30.639 C24.043,30.639 30.935,23.821 30.935,15.374 L30.935,15.366 C30.935,6.915 24.037,0.004 15.503,0.004 ZM20.339,9.570 L18.578,9.571 C17.192,9.571 16.930,10.223 16.930,11.181 L16.930,13.271 L20.265,13.271 L19.834,16.528 L16.930,16.528 L16.930,25.091 L13.520,25.091 L13.520,16.528 L10.597,16.528 L10.597,13.271 L13.520,13.271 L13.520,10.853 C13.520,8.024 15.240,6.484 17.788,6.484 C19.009,6.484 20.096,6.574 20.339,6.614 L20.339,9.570 Z" class="cls-1"/>
</svg>
