<svg xmlns="http://www.w3.org/2000/svg" xmlns:xlink="http://www.w3.org/1999/xlink" preserveAspectRatio="xMidYMid" width="30.94" height="30.53" viewBox="0 0 30.94 30.53">
  <defs>
    <style>
      .cls-1 {
        fill: #fff;
        opacity: 0.7;
        fill-rule: evenodd;
      }
    </style>
  </defs>
  <path d="M15.473,0.004 L15.471,0.004 C6.938,0.004 0.007,6.795 0.007,15.247 L0.007,15.254 C0.007,23.702 6.909,30.519 15.438,30.519 L15.453,30.519 C23.982,30.519 30.940,23.702 30.940,15.254 L30.940,15.247 C30.940,6.795 24.006,0.004 15.473,0.004 ZM16.276,19.609 C14.105,21.919 10.089,21.894 7.772,19.568 C5.455,17.243 5.481,13.492 7.829,11.198 C10.098,8.980 13.694,8.947 16.025,11.047 L14.285,12.771 L14.287,12.768 C13.005,11.525 10.884,11.581 9.567,12.888 C8.183,14.262 8.168,16.507 9.534,17.900 C10.900,19.292 13.286,19.276 14.566,17.893 C14.921,17.509 15.121,17.010 15.220,16.528 L12.063,16.528 L12.063,14.236 L17.651,14.236 C17.963,16.166 17.587,18.214 16.276,19.609 ZM24.851,15.804 L22.780,15.804 L22.780,17.855 L21.197,17.855 L21.197,15.804 L19.127,15.804 L19.127,14.357 L21.197,14.357 L21.197,12.307 L22.780,12.307 L22.780,14.357 L24.851,14.357 L24.851,15.804 Z" class="cls-1"/>
</svg>
