<svg xmlns="http://www.w3.org/2000/svg" xmlns:xlink="http://www.w3.org/1999/xlink" preserveAspectRatio="xMidYMid" width="172" height="53" viewBox="0 0 172 53">
  <defs>
    <style>
      .cls-1 {
        fill: #fff;
        opacity: 0.7;
        fill-rule: evenodd;
      }
    </style>
  </defs>
  <path d="M168.842,28.861 C166.005,41.086 167.996,39.372 161.585,39.372 C161.361,38.402 161.065,37.491 160.794,36.513 L159.173,30.835 C158.744,29.282 158.761,28.395 157.638,28.395 C156.828,28.395 156.035,33.168 155.857,34.023 L154.838,38.536 C154.573,39.695 153.624,39.372 151.499,39.372 C150.571,39.372 150.104,39.261 149.197,39.261 C149.197,38.195 153.377,18.516 153.902,15.858 C154.448,13.087 154.248,13.538 159.283,13.538 C159.948,13.538 160.168,13.688 160.346,14.237 C160.922,16.019 161.626,19.114 162.204,21.117 C162.394,21.779 162.665,23.406 163.339,23.406 C164.014,23.406 164.157,23.152 164.329,22.523 L165.249,18.131 C166.423,12.796 165.610,13.538 171.122,13.538 C171.513,13.538 171.999,13.592 171.999,13.982 C171.999,14.847 168.984,28.247 168.842,28.861 ZM146.252,33.400 C146.056,33.952 145.607,34.836 145.296,35.316 C143.682,37.810 140.909,39.305 137.985,39.675 C135.914,39.936 136.876,39.781 135.382,39.707 C132.217,39.549 128.916,38.404 128.916,34.494 C128.916,32.753 129.836,29.264 130.241,27.296 L131.697,20.231 C132.413,18.013 133.506,16.451 135.194,15.231 C136.554,14.247 139.233,13.206 141.523,13.206 C143.946,13.206 147.033,13.624 148.432,15.754 C148.792,16.303 149.197,17.177 149.197,18.084 C149.197,21.259 147.904,25.419 147.287,28.571 C146.962,30.233 146.753,31.994 146.252,33.400 ZM140.537,18.195 C137.963,18.195 137.325,21.488 136.873,23.803 C136.413,26.159 134.711,32.451 135.563,34.202 C135.850,34.791 136.833,35.048 137.686,35.048 C139.207,35.048 139.952,33.956 140.361,32.764 L141.332,28.756 C141.731,26.857 142.839,22.084 142.839,20.302 C142.839,18.741 142.403,18.195 140.537,18.195 ZM123.869,18.412 C122.755,18.604 122.816,18.804 122.534,19.834 C120.917,25.748 119.974,32.803 118.515,37.833 C118.271,38.676 118.309,39.277 117.366,39.448 C116.964,39.521 115.460,39.372 114.775,39.372 C114.333,39.372 113.892,39.378 113.451,39.380 C112.331,39.386 112.430,39.074 112.889,37.243 C113.023,36.709 113.118,36.233 113.240,35.713 L115.953,23.045 C116.162,21.981 116.346,21.006 116.577,19.902 C116.711,19.265 116.804,18.900 116.272,18.566 C115.133,17.851 111.491,18.836 110.171,18.195 C110.171,17.273 110.571,16.045 110.765,15.137 C111.073,13.696 111.032,13.527 112.691,13.538 L122.449,13.427 C123.499,13.425 124.122,13.540 125.189,13.538 C126.139,13.537 127.089,13.538 128.039,13.538 C129.113,13.538 130.451,13.323 130.451,13.871 C130.451,15.231 129.839,17.679 129.114,18.174 C128.570,18.545 124.794,18.252 123.869,18.412 ZM107.101,18.306 C105.111,18.306 101.189,16.450 99.210,19.528 C98.103,21.250 96.358,30.037 96.358,32.276 C96.358,35.790 101.435,34.631 103.571,34.336 C103.797,34.304 104.141,34.156 104.141,34.604 C104.141,35.826 103.963,36.413 103.666,37.450 C103.560,37.819 103.431,38.319 103.236,38.567 C102.382,39.653 99.721,39.682 98.393,39.735 C96.460,39.813 93.502,39.504 92.126,38.663 C90.387,37.601 89.890,36.135 89.890,34.161 C89.890,33.044 90.403,30.887 90.630,29.809 C90.926,28.403 91.216,27.091 91.534,25.735 C91.858,24.355 92.089,22.946 92.348,21.457 C93.045,17.447 95.609,14.797 99.547,13.660 C101.585,13.072 102.425,13.324 104.028,13.320 C104.841,13.318 105.617,13.364 106.398,13.473 C108.399,13.753 108.528,13.362 107.760,16.311 L107.101,18.306 ZM88.026,18.195 C86.382,18.195 84.738,18.195 83.093,18.195 C81.453,18.195 80.092,18.306 78.379,18.306 C78.124,19.416 77.393,21.663 77.393,22.741 C77.393,23.343 77.461,23.124 77.721,23.517 C79.961,23.517 82.413,23.442 84.628,23.628 C84.628,24.395 84.103,26.080 83.904,26.887 C83.745,27.530 83.836,28.056 83.256,28.228 C82.705,28.392 81.940,28.285 81.339,28.285 C75.824,28.284 76.284,27.756 75.681,30.435 C74.624,35.133 74.450,34.715 77.941,34.715 L83.865,34.711 C84.254,34.715 84.487,34.746 84.766,34.797 C85.099,34.857 85.286,34.792 85.286,35.159 C85.286,35.179 84.330,39.043 83.970,39.261 C83.281,39.595 71.184,39.375 69.276,39.368 C68.232,39.364 67.640,39.859 66.840,40.673 L59.832,46.558 C59.431,46.835 59.105,47.006 58.690,47.288 C49.549,53.507 34.071,55.329 24.244,49.330 C23.078,48.618 21.921,47.729 20.909,46.827 C20.702,46.643 20.560,46.476 20.360,46.274 C18.875,44.770 16.369,41.548 15.893,39.483 L5.588,39.483 C4.808,39.484 4.340,39.405 3.725,39.372 C-0.043,39.166 -0.003,40.096 -0.003,38.153 C-0.003,37.391 0.699,35.261 0.993,34.946 C1.485,34.421 5.858,34.826 7.342,34.826 C9.569,34.826 11.084,35.196 11.442,33.872 L12.266,30.049 C12.314,29.808 12.459,29.180 12.461,29.042 C12.469,28.425 12.034,28.320 11.512,28.280 C9.192,28.103 7.653,28.174 5.259,28.174 C5.259,27.128 5.166,26.982 5.454,25.710 C6.068,23.001 6.154,23.517 10.521,23.517 C12.853,23.517 13.658,23.903 13.967,22.124 C14.100,21.362 14.214,20.749 14.350,20.071 C14.646,18.600 14.548,18.923 14.139,18.306 C12.495,18.306 10.850,18.306 9.206,18.306 C8.231,18.306 4.930,18.559 4.930,17.752 C4.930,16.737 4.982,16.117 5.298,15.130 C5.562,14.306 5.627,13.836 6.175,13.689 C7.344,13.374 9.403,13.632 10.661,13.458 C11.800,13.300 14.291,13.373 15.265,13.508 C16.365,13.660 19.106,13.538 20.497,13.538 C22.180,13.538 22.880,11.730 24.250,10.460 L26.353,8.595 C28.663,6.759 31.866,4.706 34.701,3.512 C42.388,0.274 51.201,-1.312 59.401,1.245 C61.908,2.027 63.355,2.741 65.519,4.038 C67.413,5.172 70.042,7.562 71.395,9.404 C71.740,9.874 71.976,10.200 72.306,10.700 C72.620,11.177 72.876,11.556 73.152,12.062 L73.885,13.538 C76.442,13.538 79.000,13.538 81.558,13.538 C84.167,13.538 86.404,13.649 89.013,13.649 C89.193,14.433 88.997,15.305 88.754,16.048 L88.026,18.195 ZM69.369,12.562 C62.745,2.129 49.099,1.018 38.598,4.570 C37.074,5.086 35.753,5.868 34.382,6.626 C33.655,7.028 33.073,7.384 32.371,7.808 C30.631,8.858 27.789,10.605 26.416,12.207 C25.902,12.807 24.878,13.552 23.785,14.979 C22.670,16.434 22.179,17.016 21.201,18.685 C20.852,19.280 20.433,20.196 20.237,20.926 C19.658,23.085 18.491,28.913 17.984,31.397 C17.752,32.531 17.595,32.763 17.787,34.019 C17.903,34.782 18.466,37.118 18.778,37.785 C20.208,40.844 20.742,41.188 22.534,43.521 L24.973,45.821 C26.308,46.894 29.559,48.475 31.226,49.033 C34.451,50.112 36.630,50.349 40.230,50.349 C42.701,50.349 45.133,49.997 47.219,49.545 C52.218,48.462 56.355,46.516 60.449,43.412 C62.334,41.984 64.892,39.195 66.211,37.487 C66.957,36.521 69.052,34.064 69.293,32.843 L71.208,23.138 C71.343,22.456 71.802,20.403 71.802,19.858 C71.802,17.503 70.573,14.458 69.369,12.562 ZM60.104,25.435 C60.542,24.243 61.199,21.153 61.497,19.858 L68.294,19.858 C68.278,20.586 67.924,22.027 67.768,22.653 L66.391,27.690 C66.086,28.728 66.087,29.036 65.350,29.853 C65.173,30.049 64.679,30.424 64.425,30.581 C64.045,30.815 63.771,30.950 63.316,31.123 C61.884,31.666 59.178,31.718 57.548,31.724 C56.846,31.727 56.653,31.614 56.020,31.606 L51.302,31.722 C51.302,32.494 50.571,35.010 50.362,35.982 C49.254,41.121 49.216,40.852 51.631,42.144 C51.604,42.465 51.300,43.690 51.192,43.918 C47.840,43.918 44.819,43.807 41.435,43.807 L47.772,17.951 C48.486,15.062 49.211,12.216 49.877,9.325 C53.421,9.325 56.966,9.325 60.510,9.325 C64.241,9.325 64.045,9.090 63.650,10.280 C63.250,11.487 63.656,12.080 62.267,12.211 C59.253,12.496 57.265,13.829 55.733,16.357 C55.339,17.007 55.175,17.416 54.846,18.121 C54.247,19.402 52.756,25.319 52.727,26.621 L58.866,26.621 C59.520,26.621 59.911,25.959 60.104,25.435 ZM41.655,35.380 C41.289,36.851 40.972,38.254 40.602,39.749 L39.837,42.966 C39.755,43.359 39.731,43.807 39.353,43.807 L29.815,43.807 C29.815,43.092 29.866,42.463 30.340,42.121 C31.928,40.974 32.891,41.418 33.723,38.889 C33.950,38.200 35.390,32.467 35.406,31.722 L32.665,31.721 C31.905,31.718 31.527,31.818 30.915,31.836 C29.565,31.877 28.522,31.714 27.292,31.724 C25.648,31.737 23.745,31.674 22.888,30.524 C21.762,29.013 23.256,22.901 23.689,21.534 C24.331,19.507 24.263,19.666 25.775,19.842 C26.804,19.961 30.048,19.444 31.131,19.969 C30.895,20.991 28.864,25.853 30.653,26.551 C31.141,26.741 35.967,26.621 36.722,26.621 C37.059,25.156 37.351,23.734 37.708,22.297 C38.417,19.450 39.541,15.652 37.136,13.231 C35.611,11.695 33.323,12.772 33.323,11.653 C33.323,10.800 33.708,10.036 33.871,9.325 L46.259,9.325 C46.982,9.323 47.351,9.390 47.903,9.436 C47.903,10.100 47.582,11.067 47.421,11.720 L41.655,35.380 Z" class="cls-1"/>
</svg>
