<svg xmlns="http://www.w3.org/2000/svg" xmlns:xlink="http://www.w3.org/1999/xlink" preserveAspectRatio="xMidYMid" width="172" height="52.969" viewBox="0 0 172 52.969">
  <defs>
    <style>
      .cls-1 {
        fill: #f47321;
        fill-rule: evenodd;
      }
    </style>
  </defs>
  <path d="M168.842,28.844 C166.005,41.062 167.996,39.349 161.585,39.349 C161.361,38.380 161.065,37.469 160.794,36.492 L159.173,30.817 C158.744,29.265 158.761,28.379 157.638,28.379 C156.828,28.379 156.035,33.148 155.857,34.002 L154.838,38.513 C154.573,39.671 153.624,39.349 151.499,39.349 C150.571,39.349 150.104,39.238 149.197,39.238 C149.197,38.172 153.377,18.505 153.902,15.848 C154.448,13.079 154.248,13.530 159.283,13.530 C159.948,13.530 160.168,13.680 160.346,14.229 C160.922,16.009 161.626,19.102 162.204,21.105 C162.394,21.766 162.665,23.392 163.339,23.392 C164.014,23.392 164.157,23.139 164.329,22.509 L165.249,18.120 C166.423,12.789 165.610,13.530 171.122,13.530 C171.513,13.530 171.999,13.584 171.999,13.973 C171.999,14.838 168.984,28.230 168.842,28.844 ZM146.252,33.381 C146.056,33.932 145.607,34.815 145.296,35.295 C143.682,37.788 140.909,39.282 137.985,39.651 C135.914,39.913 136.876,39.758 135.382,39.683 C132.217,39.525 128.916,38.381 128.916,34.473 C128.916,32.734 129.836,29.247 130.241,27.280 L131.697,20.219 C132.413,18.002 133.506,16.442 135.194,15.222 C136.554,14.239 139.233,13.198 141.523,13.198 C143.946,13.198 147.033,13.616 148.432,15.745 C148.792,16.293 149.197,17.167 149.197,18.073 C149.197,21.246 147.904,25.404 147.287,28.554 C146.962,30.215 146.753,31.975 146.252,33.381 ZM140.537,18.184 C137.963,18.184 137.325,21.476 136.873,23.789 C136.413,26.144 134.711,32.432 135.563,34.182 C135.850,34.771 136.833,35.027 137.686,35.027 C139.207,35.027 139.952,33.936 140.361,32.744 L141.332,28.739 C141.731,26.841 142.839,22.070 142.839,20.290 C142.839,18.730 142.403,18.184 140.537,18.184 ZM123.869,18.401 C122.755,18.594 122.816,18.793 122.534,19.822 C120.917,25.733 119.974,32.784 118.515,37.811 C118.271,38.653 118.309,39.254 117.366,39.425 C116.964,39.498 115.460,39.349 114.775,39.349 C114.333,39.349 113.892,39.355 113.451,39.357 C112.331,39.362 112.430,39.051 112.889,37.221 C113.023,36.688 113.118,36.211 113.240,35.692 L115.953,23.031 C116.162,21.968 116.346,20.993 116.577,19.890 C116.711,19.253 116.804,18.889 116.272,18.555 C115.133,17.841 111.491,18.825 110.171,18.184 C110.171,17.263 110.571,16.035 110.765,15.128 C111.073,13.687 111.032,13.519 112.691,13.529 L122.449,13.419 C123.499,13.417 124.122,13.532 125.189,13.530 C126.139,13.529 127.089,13.530 128.039,13.530 C129.113,13.530 130.451,13.315 130.451,13.863 C130.451,15.222 129.839,17.668 129.114,18.163 C128.570,18.534 124.794,18.242 123.869,18.401 ZM107.101,18.295 C105.111,18.295 101.189,16.440 99.210,19.516 C98.103,21.238 96.358,30.020 96.358,32.257 C96.358,35.769 101.435,34.611 103.571,34.315 C103.797,34.284 104.141,34.136 104.141,34.584 C104.141,35.805 103.963,36.391 103.666,37.428 C103.560,37.796 103.431,38.296 103.236,38.545 C102.382,39.629 99.721,39.658 98.393,39.712 C96.460,39.789 93.502,39.480 92.126,38.640 C90.387,37.579 89.890,36.113 89.890,34.141 C89.890,33.024 90.403,30.869 90.630,29.792 C90.926,28.386 91.216,27.075 91.534,25.719 C91.858,24.341 92.089,22.932 92.348,21.444 C93.045,17.436 95.609,14.788 99.547,13.652 C101.585,13.064 102.425,13.316 104.028,13.312 C104.841,13.310 105.617,13.356 106.398,13.465 C108.399,13.745 108.528,13.354 107.760,16.302 L107.101,18.295 ZM88.026,18.184 C86.382,18.184 84.738,18.184 83.093,18.184 C81.453,18.184 80.092,18.295 78.379,18.295 C78.124,19.405 77.393,21.650 77.393,22.727 C77.393,23.329 77.461,23.110 77.721,23.503 C79.961,23.503 82.413,23.428 84.628,23.614 C84.628,24.380 84.103,26.064 83.904,26.871 C83.745,27.514 83.836,28.039 83.256,28.211 C82.705,28.375 81.940,28.268 81.339,28.268 C75.824,28.268 76.284,27.740 75.681,30.417 C74.624,35.112 74.450,34.695 77.941,34.695 L83.865,34.690 C84.254,34.694 84.487,34.726 84.766,34.776 C85.099,34.837 85.286,34.771 85.286,35.138 C85.286,35.159 84.330,39.020 83.970,39.238 C83.281,39.572 71.184,39.352 69.276,39.345 C68.232,39.341 67.640,39.836 66.840,40.649 L59.832,46.531 C59.431,46.808 59.105,46.978 58.690,47.260 C49.549,53.475 34.071,55.296 24.244,49.301 C23.078,48.590 21.921,47.701 20.909,46.800 C20.702,46.615 20.560,46.448 20.360,46.247 C18.875,44.743 16.369,41.524 15.893,39.460 L5.588,39.460 C4.808,39.461 4.340,39.382 3.725,39.348 C-0.043,39.142 -0.003,40.072 -0.003,38.130 C-0.003,37.369 0.699,35.240 0.993,34.926 C1.485,34.401 5.858,34.806 7.342,34.806 C9.569,34.806 11.084,35.175 11.442,33.852 L12.266,30.032 C12.314,29.790 12.459,29.163 12.461,29.025 C12.469,28.409 12.034,28.303 11.512,28.264 C9.192,28.086 7.653,28.157 5.259,28.157 C5.259,27.112 5.166,26.966 5.454,25.695 C6.068,22.987 6.154,23.503 10.521,23.503 C12.853,23.503 13.658,23.889 13.967,22.111 C14.100,21.349 14.214,20.736 14.350,20.059 C14.646,18.589 14.548,18.912 14.139,18.295 C12.495,18.295 10.850,18.295 9.206,18.295 C8.231,18.295 4.930,18.548 4.930,17.741 C4.930,16.727 4.982,16.108 5.298,15.121 C5.562,14.297 5.627,13.828 6.175,13.681 C7.344,13.366 9.403,13.624 10.661,13.450 C11.800,13.292 14.291,13.365 15.265,13.500 C16.365,13.652 19.106,13.530 20.497,13.530 C22.180,13.530 22.880,11.723 24.250,10.454 L26.353,8.590 C28.663,6.755 31.866,4.703 34.701,3.510 C42.388,0.274 51.201,-1.311 59.401,1.244 C61.908,2.025 63.355,2.740 65.519,4.035 C67.413,5.169 70.042,7.558 71.395,9.398 C71.740,9.868 71.976,10.194 72.306,10.694 C72.620,11.170 72.876,11.549 73.152,12.054 L73.885,13.530 C76.442,13.530 79.000,13.530 81.558,13.530 C84.167,13.530 86.404,13.641 89.013,13.641 C89.193,14.425 88.997,15.296 88.754,16.039 L88.026,18.184 ZM69.369,12.554 C62.745,2.128 49.099,1.017 38.598,4.568 C37.074,5.083 35.753,5.865 34.382,6.622 C33.655,7.024 33.073,7.380 32.371,7.803 C30.631,8.852 27.789,10.598 26.416,12.200 C25.902,12.799 24.878,13.544 23.785,14.970 C22.670,16.425 22.179,17.006 21.201,18.674 C20.852,19.269 20.433,20.184 20.237,20.914 C19.658,23.072 18.491,28.896 17.984,31.378 C17.752,32.512 17.595,32.743 17.787,33.999 C17.903,34.761 18.466,37.096 18.778,37.762 C20.208,40.820 20.742,41.164 22.534,43.496 L24.973,45.794 C26.308,46.866 29.559,48.446 31.226,49.004 C34.451,50.083 36.630,50.319 40.230,50.319 C42.701,50.319 45.133,49.968 47.219,49.516 C52.218,48.434 56.355,46.489 60.449,43.387 C62.334,41.959 64.892,39.171 66.211,37.465 C66.957,36.500 69.052,34.044 69.293,32.823 L71.208,23.124 C71.343,22.443 71.802,20.391 71.802,19.846 C71.802,17.493 70.573,14.449 69.369,12.554 ZM60.104,25.419 C60.542,24.229 61.199,21.140 61.497,19.846 L68.294,19.846 C68.278,20.574 67.924,22.014 67.768,22.639 L66.391,27.674 C66.086,28.711 66.087,29.019 65.350,29.835 C65.173,30.031 64.679,30.406 64.425,30.563 C64.045,30.797 63.771,30.932 63.316,31.104 C61.884,31.647 59.178,31.699 57.548,31.706 C56.846,31.708 56.653,31.596 56.020,31.588 L51.302,31.703 C51.302,32.475 50.571,34.989 50.362,35.960 C49.254,41.096 49.216,40.827 51.631,42.119 C51.604,42.441 51.300,43.664 51.192,43.892 C47.840,43.892 44.819,43.781 41.435,43.781 L47.772,17.940 C48.486,15.053 49.211,12.209 49.877,9.320 C53.421,9.320 56.966,9.320 60.510,9.320 C64.241,9.320 64.045,9.085 63.650,10.274 C63.250,11.480 63.656,12.072 62.267,12.204 C59.253,12.489 57.265,13.821 55.733,16.347 C55.339,16.996 55.175,17.406 54.846,18.110 C54.247,19.391 52.756,25.304 52.727,26.606 L58.866,26.606 C59.520,26.606 59.911,25.944 60.104,25.419 ZM41.655,35.360 C41.289,36.829 40.972,38.231 40.602,39.726 L39.837,42.941 C39.755,43.333 39.731,43.781 39.353,43.781 L29.815,43.781 C29.815,43.067 29.866,42.438 30.340,42.096 C31.928,40.950 32.891,41.394 33.723,38.866 C33.950,38.177 35.390,32.448 35.406,31.703 L32.665,31.703 C31.905,31.700 31.527,31.799 30.915,31.817 C29.565,31.858 28.522,31.695 27.292,31.705 C25.648,31.718 23.745,31.656 22.888,30.505 C21.762,28.996 23.256,22.887 23.689,21.521 C24.331,19.495 24.263,19.655 25.775,19.830 C26.804,19.950 30.048,19.432 31.131,19.957 C30.895,20.979 28.864,25.838 30.653,26.535 C31.141,26.726 35.967,26.606 36.722,26.606 C37.059,25.141 37.351,23.720 37.708,22.284 C38.417,19.439 39.541,15.643 37.136,13.223 C35.611,11.688 33.323,12.765 33.323,11.647 C33.323,10.794 33.708,10.030 33.871,9.320 L46.259,9.319 C46.982,9.318 47.351,9.384 47.903,9.430 C47.903,10.094 47.582,11.061 47.421,11.713 L41.655,35.360 Z" class="cls-1"/>
</svg>
