<svg xmlns="http://www.w3.org/2000/svg" xmlns:xlink="http://www.w3.org/1999/xlink" preserveAspectRatio="xMidYMid" width="30.81" height="30.62" viewBox="0 0 30.81 30.62">
  <defs>
    <style>
      .cls-1 {
        fill: #fff;
        opacity: 0.7;
        fill-rule: evenodd;
      }
    </style>
  </defs>
  <path d="M15.382,-0.020 L15.416,-0.020 C6.883,-0.020 -0.000,6.816 -0.000,15.267 L-0.000,15.294 C-0.000,23.741 6.867,30.616 15.396,30.616 L15.411,30.616 C23.940,30.616 30.811,23.741 30.811,15.294 L30.811,15.281 C30.811,6.829 23.915,-0.020 15.382,-0.020 ZM19.936,22.269 C19.390,22.846 18.125,23.259 16.991,23.259 L16.867,23.259 C13.060,23.259 12.178,20.483 12.178,18.865 L12.178,14.333 L10.733,14.333 C10.559,14.333 10.473,14.230 10.473,14.058 L10.473,11.935 C10.473,11.711 10.589,11.511 10.802,11.437 C12.756,10.755 13.355,9.038 13.446,7.754 C13.471,7.411 13.638,7.217 13.939,7.217 L16.175,7.217 C16.348,7.217 16.441,7.411 16.441,7.584 L16.441,11.197 L19.106,11.197 C19.279,11.197 19.364,11.318 19.364,11.490 L19.364,14.041 C19.364,14.213 19.280,14.333 19.106,14.333 L16.441,14.333 L16.441,18.510 C16.441,19.554 17.154,19.842 17.583,19.842 C17.994,19.832 18.408,19.708 18.612,19.627 C18.762,19.567 18.899,19.527 19.018,19.557 C19.128,19.584 19.203,19.661 19.252,19.803 L19.947,21.810 C20.003,21.971 20.053,22.146 19.936,22.269 Z" class="cls-1"/>
</svg>
